<svg width="29" height="29" viewBox="0 0 29 29" fill="none" xmlns="http://www.w3.org/2000/svg">
<path fill-rule="evenodd" clip-rule="evenodd" d="M9.37769 5.4375H19.6219C20.289 5.43755 20.9327 5.68282 21.4307 6.12664C21.9287 6.57046 22.2461 7.18186 22.3226 7.8445L23.7871 20.532C23.831 20.9128 23.794 21.2986 23.6783 21.664C23.5626 22.0295 23.371 22.3664 23.116 22.6525C22.861 22.9387 22.5483 23.1677 22.1985 23.3246C21.8487 23.4814 21.4698 23.5625 21.0864 23.5625H7.91319C7.52987 23.5625 7.15088 23.4814 6.80111 23.3246C6.45133 23.1677 6.13867 22.9387 5.88364 22.6525C5.62862 22.3664 5.43699 22.0295 5.32133 21.664C5.20568 21.2986 5.16861 20.9128 5.21256 20.532L6.67707 7.8445C6.75355 7.18186 7.07098 6.57046 7.56894 6.12664C8.0669 5.68282 8.71065 5.43755 9.37769 5.4375ZM3.97644 7.53275C4.12942 6.20747 4.76426 4.98467 5.76019 4.09703C6.75611 3.20938 8.04361 2.71884 9.37769 2.71875H19.6219C20.956 2.71884 22.2435 3.20938 23.2394 4.09703C24.2354 4.98467 24.8702 6.20747 25.0232 7.53275L26.4877 20.2203C26.5756 20.9818 26.5015 21.7534 26.2702 22.4843C26.0388 23.2152 25.6556 23.889 25.1455 24.4613C24.6355 25.0337 24.0102 25.4917 23.3106 25.8054C22.6111 26.119 21.8531 26.2812 21.0864 26.2812H7.91319C7.14654 26.2812 6.38857 26.119 5.68902 25.8054C4.98947 25.4917 4.36415 25.0337 3.85409 24.4613C3.34404 23.889 2.96078 23.2152 2.72947 22.4843C2.49816 21.7534 2.42403 20.9818 2.51194 20.2203L3.97644 7.53275ZM9.06231 9.51562C9.06231 9.1551 9.20553 8.80933 9.46047 8.5544C9.7154 8.29947 10.0612 8.15625 10.4217 8.15625C10.7822 8.15625 11.128 8.29947 11.3829 8.5544C11.6378 8.80933 11.7811 9.1551 11.7811 9.51562V9.96875C11.7811 10.6898 12.0675 11.3813 12.5774 11.8912C13.0872 12.4011 13.7788 12.6875 14.4998 12.6875C15.2209 12.6875 15.9124 12.4011 16.4223 11.8912C16.9321 11.3813 17.2186 10.6898 17.2186 9.96875V9.51562C17.2186 9.1551 17.3618 8.80933 17.6167 8.5544C17.8716 8.29947 18.2174 8.15625 18.5779 8.15625C18.9385 8.15625 19.2842 8.29947 19.5392 8.5544C19.7941 8.80933 19.9373 9.1551 19.9373 9.51562V9.96875C19.9373 11.4109 19.3644 12.7939 18.3447 13.8136C17.325 14.8334 15.9419 15.4062 14.4998 15.4062C13.0577 15.4062 11.6747 14.8334 10.6549 13.8136C9.63519 12.7939 9.06231 11.4109 9.06231 9.96875V9.51562Z" fill="black"/>
</svg>
